<?xml version="1.0" encoding="utf-8"?>
<!-- Generator: Adobe Illustrator 24.1.2, SVG Export Plug-In . SVG Version: 6.00 Build 0)  -->
<svg version="1.1" id="Capa_1" xmlns="http://www.w3.org/2000/svg" xmlns:xlink="http://www.w3.org/1999/xlink" x="0px" y="0px"
	 viewBox="0 0 195.4 23.1" style="enable-background:new 0 0 195.4 23.1;" xml:space="preserve">
<style type="text/css">
	.st0{enable-background:new    ;}
	.st1{fill:#CF000B;}
</style>
<g id="Grupo_1659" transform="translate(-0.371)">
	<g class="st0">
		<path class="st1" d="M4.8,13.7V19H1.7V4.1h5.8c1.1,0,2.1,0.2,3,0.6c0.9,0.4,1.5,1,2,1.7C12.9,7.2,13.1,8,13.1,9
			c0,1.5-0.5,2.6-1.5,3.5c-1,0.8-2.4,1.3-4.2,1.3H4.8z M4.8,11.2h2.7c0.8,0,1.4-0.2,1.9-0.6C9.8,10.3,10,9.7,10,9
			c0-0.7-0.2-1.3-0.6-1.8s-1-0.7-1.8-0.7H4.8V11.2z"/>
		<path class="st1" d="M24.4,12.5h-5.9v4h6.9V19h-10V4.1h10v2.5h-6.9v3.6h5.9V12.5z"/>
		<path class="st1" d="M32.9,13.5h-2.5V19h-3.1V4.1h5.5c1.8,0,3.1,0.4,4.1,1.2s1.4,1.9,1.4,3.3c0,1-0.2,1.9-0.7,2.5
			c-0.4,0.7-1.1,1.2-2,1.6l3.2,6.1V19h-3.3L32.9,13.5z M30.5,11H33c0.8,0,1.4-0.2,1.8-0.6c0.4-0.4,0.6-0.9,0.6-1.6
			c0-0.7-0.2-1.3-0.6-1.7c-0.4-0.4-1-0.6-1.8-0.6h-2.5V11z"/>
		<path class="st1" d="M52.3,4.1v9.8c0,1.6-0.5,2.9-1.5,3.9c-1,1-2.4,1.4-4.2,1.4c-1.7,0-3.1-0.5-4.2-1.4c-1-0.9-1.5-2.2-1.6-3.8
			V4.1h3.1v9.9c0,1,0.2,1.7,0.7,2.1c0.5,0.4,1.1,0.7,1.9,0.7c1.7,0,2.6-0.9,2.6-2.7V4.1H52.3z M47.1,0.1h3.2l-2.8,3.2h-2.4L47.1,0.1
			z"/>
	</g>
	<g class="st0">
		<path class="st1" d="M63.8,11.8h-7v6.1h8V19h-9.3V4.1h9.2v1.1h-8v5.6h7V11.8z"/>
		<path class="st1" d="M78.7,19h-1.3L68.9,6.2V19h-1.3V4.1h1.3l8.6,12.8V4.1h1.3V19z"/>
	</g>
	<g class="st0">
		<path class="st1" d="M93.4,6.6h-4.6V19h-3.1V6.6h-4.5V4.1h12.2V6.6z"/>
		<path class="st1" d="M106.6,4.1v9.8c0,1.6-0.5,2.9-1.5,3.9c-1,1-2.4,1.4-4.2,1.4c-1.7,0-3.1-0.5-4.2-1.4c-1-0.9-1.5-2.2-1.6-3.8
			V4.1h3.1v9.9c0,1,0.2,1.7,0.7,2.1c0.5,0.4,1.1,0.7,1.9,0.7c1.7,0,2.6-0.9,2.6-2.7V4.1H106.6z"/>
		<path class="st1" d="M117,15.1c0-0.6-0.2-1-0.6-1.3c-0.4-0.3-1.1-0.6-2.2-1c-1.1-0.3-1.9-0.7-2.5-1c-1.7-0.9-2.5-2.1-2.5-3.7
			c0-0.8,0.2-1.5,0.7-2.2c0.5-0.6,1.1-1.1,2-1.5c0.9-0.4,1.8-0.5,2.9-0.5c1.1,0,2,0.2,2.9,0.6c0.8,0.4,1.5,0.9,1.9,1.6
			c0.5,0.7,0.7,1.5,0.7,2.4h-3.1c0-0.7-0.2-1.2-0.6-1.6c-0.4-0.4-1-0.6-1.8-0.6c-0.8,0-1.3,0.2-1.8,0.5c-0.4,0.3-0.6,0.7-0.6,1.3
			c0,0.5,0.2,0.9,0.7,1.2c0.5,0.3,1.2,0.6,2.2,0.9c1.8,0.5,3,1.2,3.8,2s1.2,1.8,1.2,2.9c0,1.3-0.5,2.3-1.5,3c-1,0.7-2.3,1.1-3.9,1.1
			c-1.1,0-2.2-0.2-3.1-0.6c-0.9-0.4-1.7-1-2.2-1.7c-0.5-0.7-0.7-1.6-0.7-2.5h3.1c0,1.6,1,2.5,3,2.5c0.7,0,1.3-0.1,1.7-0.4
			C116.8,16,117,15.6,117,15.1z"/>
	</g>
	<g class="st0">
		<path class="st1" d="M124.6,4.1l5.5,13.2l5.5-13.2h1.7V19h-1.3v-6.5l0.1-6.7L130.6,19h-1l-5.5-13.1l0.1,6.6V19h-1.3V4.1H124.6z"/>
		<path class="st1" d="M149.5,14.8h-6.8l-1.5,4.2h-1.3l5.6-14.9h1.2l5.6,14.9h-1.3L149.5,14.8z M143.1,13.7h6l-3-8.1L143.1,13.7z"/>
		<path class="st1" d="M165.9,19h-1.3L156,6.2V19h-1.3V4.1h1.3l8.6,12.8V4.1h1.3V19z"/>
		<path class="st1" d="M180.8,12.3c0,1.4-0.2,2.6-0.7,3.6c-0.5,1-1.2,1.8-2,2.4s-1.9,0.8-3.1,0.8c-1.7,0-3.2-0.6-4.2-1.9
			c-1.1-1.2-1.6-2.9-1.6-5.1v-1.5c0-1.4,0.2-2.6,0.7-3.6c0.5-1,1.2-1.9,2-2.4c0.9-0.6,1.9-0.8,3-0.8s2.2,0.3,3,0.8
			c0.9,0.6,1.6,1.3,2,2.3s0.7,2.2,0.7,3.5V12.3z M179.6,10.7c0-1.8-0.4-3.2-1.2-4.2c-0.8-1-1.9-1.5-3.3-1.5c-1.4,0-2.5,0.5-3.3,1.5
			c-0.8,1-1.2,2.4-1.2,4.3v1.6c0,1.8,0.4,3.2,1.2,4.2c0.8,1,1.9,1.6,3.3,1.6c1.4,0,2.5-0.5,3.3-1.5c0.8-1,1.2-2.4,1.2-4.3V10.7z"/>
		<path class="st1" d="M192.6,15.3c0-0.8-0.3-1.5-0.9-2c-0.6-0.5-1.6-0.9-3.2-1.4c-1.5-0.4-2.7-0.9-3.4-1.4c-1-0.7-1.5-1.7-1.5-2.9
			c0-1.1,0.5-2.1,1.4-2.8c0.9-0.7,2.1-1.1,3.6-1.1c1,0,1.9,0.2,2.7,0.6c0.8,0.4,1.4,0.9,1.8,1.6s0.6,1.4,0.6,2.3h-1.3
			c0-1-0.3-1.8-1-2.5c-0.7-0.6-1.6-0.9-2.8-0.9c-1.1,0-2.1,0.3-2.7,0.8c-0.7,0.5-1,1.2-1,2c0,0.8,0.3,1.4,0.9,1.9
			c0.6,0.5,1.6,0.9,2.9,1.3s2.4,0.7,3,1.1c0.7,0.4,1.2,0.9,1.6,1.4s0.5,1.2,0.5,1.9c0,1.2-0.5,2.1-1.4,2.8c-0.9,0.7-2.2,1.1-3.7,1.1
			c-1.1,0-2-0.2-2.9-0.6c-0.9-0.4-1.5-0.9-2-1.6c-0.5-0.7-0.7-1.5-0.7-2.3h1.3c0,1.1,0.4,1.9,1.2,2.5s1.8,0.9,3.1,0.9
			c1.2,0,2.1-0.3,2.8-0.8C192.3,16.9,192.6,16.2,192.6,15.3z"/>
	</g>
</g>
</svg>
